<?xml version="1.0" encoding="UTF-8"?>
<svg xmlns="http://www.w3.org/2000/svg" xmlns:xlink="http://www.w3.org/1999/xlink" width="500px" height="500px" viewBox="0 0 500 367" version="1.1">
<g id="surface1">
<path style=" stroke:none;fill-rule:nonzero;fill:rgb(6.27451%,5.882353%,5.098039%);fill-opacity:1;" d="M 57.578125 201.417969 C 56.457031 201.035156 55.046875 200.835938 54.4375 201.089844 C 53.828125 201.292969 53.3125 201.089844 53.3125 200.707031 C 53.3125 199.488281 56.039062 199.691406 59.34375 201.089844 C 62.421875 202.433594 60.851562 202.765625 57.578125 201.417969 Z M 98.925781 206.828125 C 124.457031 206.75 127.085938 206.625 128.273438 205.558594 C 128.949219 205.101562 129.878906 205.023438 130.808594 205.558594 C 131.898438 206.09375 133.019531 205.886719 134.847656 204.695312 L 137.351562 203.09375 L 134.433594 203.578125 C 132.828125 203.828125 123.785156 204.234375 114.386719 204.441406 C 102.003906 204.769531 97.769531 204.695312 99.246094 204.035156 C 100.398438 203.578125 101.875 203.222656 102.582031 203.296875 C 103.320312 203.371094 104.183594 203.296875 104.507812 203.222656 C 104.890625 203.09375 106.207031 202.890625 107.488281 202.765625 C 108.738281 202.636719 113.167969 202.105469 117.304688 201.621094 C 121.441406 201.164062 125.484375 200.960938 126.222656 201.164062 C 126.957031 201.417969 127.824219 201.242188 128.144531 200.757812 C 128.402344 200.300781 129.558594 199.894531 130.550781 199.894531 C 131.640625 199.894531 132.699219 199.640625 133.019531 199.285156 C 133.375 199.03125 134.433594 198.699219 135.425781 198.578125 C 136.484375 198.421875 138.507812 198.09375 139.851562 197.835938 C 141.265625 197.636719 144.601562 197.023438 147.390625 196.566406 C 153.230469 195.5 168.59375 192.503906 172.859375 191.566406 C 184.339844 188.949219 194.703125 186.894531 200.027344 186.15625 C 201.4375 185.953125 204.066406 185.421875 205.929688 184.960938 C 207.726562 184.554688 211.125 183.742188 213.402344 183.210938 C 215.742188 182.679688 218.40625 182.148438 219.496094 182.019531 C 220.492188 181.890625 221.613281 181.5625 221.902344 181.28125 C 222.222656 180.949219 223.441406 180.671875 224.660156 180.671875 C 225.910156 180.671875 227.257812 180.34375 227.644531 180.011719 C 228.125 179.632812 231.84375 178.820312 236.015625 178.285156 C 240.152344 177.675781 244.835938 176.9375 246.441406 176.53125 C 248.042969 176.078125 251.25 175.542969 253.5625 175.214844 C 255.902344 174.933594 259.621094 174.144531 261.898438 173.484375 C 264.242188 172.828125 267.578125 171.886719 269.46875 171.402344 C 271.265625 170.945312 273.929688 170.085938 275.277344 169.398438 C 276.6875 168.816406 279.894531 167.875 282.363281 167.339844 C 284.898438 166.730469 287.785156 165.945312 288.714844 165.539062 C 289.644531 165.132812 290.929688 164.675781 291.570312 164.546875 C 292.277344 164.472656 295.257812 163.203125 298.273438 161.804688 C 304.882812 158.683594 308.378906 157.132812 313.285156 155.28125 C 315.339844 154.542969 318 153.199219 319.285156 152.257812 C 320.46875 151.394531 321.882812 150.65625 322.363281 150.65625 C 322.78125 150.65625 323.550781 150.125 324.09375 149.542969 C 324.640625 148.855469 326.339844 148.144531 327.945312 147.789062 C 329.578125 147.535156 331.246094 146.515625 331.730469 145.652344 C 332.175781 144.742188 333.171875 143.980469 333.878906 143.980469 C 334.617188 143.980469 335.738281 143.472656 336.476562 142.734375 C 337.117188 142.078125 338.015625 141.667969 338.398438 141.921875 C 338.816406 142.203125 340.550781 141.058594 342.28125 139.460938 C 344.109375 137.859375 346.355469 136.511719 347.445312 136.511719 C 348.441406 136.511719 349.5 135.929688 349.785156 135.242188 C 350.042969 134.582031 352.511719 132.78125 355.335938 131.308594 C 358.0625 129.859375 360.46875 128.183594 360.757812 127.578125 C 360.949219 126.992188 361.527344 126.507812 362.070312 126.507812 C 362.554688 126.507812 364.703125 125.035156 366.753906 123.308594 C 368.902344 121.507812 371.4375 119.78125 372.464844 119.449219 C 373.523438 119.167969 374.324219 118.382812 374.324219 117.773438 C 374.324219 117.191406 375.703125 115.640625 377.4375 114.320312 C 379.199219 112.972656 382.664062 109.976562 385.167969 107.5625 C 387.699219 105.101562 389.976562 103.171875 390.296875 103.171875 C 391.453125 103.171875 401.011719 93.167969 402.808594 90.019531 C 403.835938 88.292969 406.625 85.21875 409.09375 83.164062 C 411.5 81.082031 413.519531 78.949219 413.585938 78.339844 C 413.585938 77.832031 414.578125 76.433594 415.703125 75.289062 C 416.855469 74.148438 417.785156 72.878906 417.851562 72.546875 C 417.851562 72.140625 419.390625 70.414062 421.21875 68.535156 C 423.078125 66.730469 425.933594 63.125 427.632812 60.613281 C 429.300781 58.125 432.445312 53.859375 434.660156 51.191406 C 436.839844 48.527344 440.207031 44.007812 442.132812 41.0625 C 444.023438 38.117188 446.078125 35.523438 446.75 35.246094 C 448.675781 34.535156 448.128906 38.675781 446.140625 40.070312 C 444.890625 40.984375 444.472656 41.871094 444.792969 43.269531 C 445.210938 44.539062 444.667969 45.988281 443.320312 47.789062 C 442.195312 49.1875 441.523438 50.660156 441.8125 50.9375 C 442.066406 51.191406 441.683594 52.210938 440.847656 53.074219 C 440.046875 53.933594 439.664062 55.128906 439.984375 55.660156 C 440.722656 56.804688 438.925781 62.949219 437.320312 64.878906 C 436.710938 65.617188 436.167969 66.683594 436.167969 67.34375 C 436.167969 68.890625 432.765625 75.496094 429.011719 81.230469 C 427.410156 83.546875 426.160156 85.957031 426.160156 86.566406 C 426.160156 87.101562 425.613281 88.214844 424.875 89.027344 C 424.136719 89.816406 423.464844 91.085938 423.335938 91.824219 C 423.144531 93.292969 415.671875 102.691406 408.964844 109.824219 C 406.625 112.367188 402.96875 117.445312 400.753906 121.175781 C 397.675781 126.382812 393.378906 131.382812 382.40625 142.53125 C 369.160156 155.941406 364.605469 160.128906 355.527344 166.933594 C 351.648438 169.878906 345.230469 174.019531 344.621094 174.019531 C 344.367188 174.019531 342.21875 175.289062 339.8125 176.8125 C 335.386719 179.632812 318.320312 188.214844 317.199219 188.214844 C 316.878906 188.214844 314.921875 188.949219 312.996094 189.8125 C 311.039062 190.675781 307.351562 192.226562 304.882812 193.21875 C 302.410156 194.230469 300.007812 195.300781 299.558594 195.679688 C 299.074219 196.035156 297.535156 196.566406 296.222656 196.898438 C 294.875 197.230469 292.117188 198.21875 290.191406 199.109375 C 288.234375 199.972656 286.117188 200.707031 285.507812 200.707031 C 284.835938 200.707031 281.210938 201.824219 277.359375 203.222656 C 273.542969 204.566406 269.855469 205.683594 269.246094 205.683594 C 268.605469 205.683594 267 206.445312 265.71875 207.359375 C 264.433594 208.222656 263.183594 208.757812 262.894531 208.503906 C 262.15625 207.769531 248.78125 211.042969 248.363281 212.035156 C 248.171875 212.515625 246.890625 212.769531 245.507812 212.566406 C 244.097656 212.363281 242.171875 212.566406 241.148438 213.023438 C 238.871094 214.164062 230.53125 215.183594 225.527344 214.976562 C 222.351562 214.851562 216.671875 215.511719 209.265625 216.832031 C 208.335938 217.035156 203.234375 217.644531 197.972656 218.179688 C 192.679688 218.710938 185.722656 219.445312 182.511719 219.851562 C 174.878906 220.769531 146.71875 221.175781 112.300781 220.972656 C 84.425781 220.769531 65.40625 219.371094 57.003906 217.035156 C 54.691406 216.453125 50.492188 215.433594 47.507812 214.851562 C 44.460938 214.292969 41.476562 213.378906 40.804688 212.847656 C 38.878906 211.296875 36.730469 210.6875 36.183594 211.574219 C 35.253906 213.023438 36.730469 218.226562 38.046875 218.226562 C 38.75 218.226562 41.0625 218.789062 43.210938 219.445312 C 50.714844 221.78125 53.828125 222.367188 61.269531 222.851562 C 65.40625 223.179688 71.019531 223.585938 73.839844 223.789062 C 86.542969 224.855469 117.464844 225.109375 136.101562 224.449219 C 142.324219 224.167969 154.542969 223.839844 163.234375 223.714844 C 172.023438 223.511719 183.859375 222.773438 189.601562 222.039062 C 200.121094 220.769531 214.621094 218.382812 215.550781 217.769531 C 215.808594 217.644531 219.015625 217.238281 222.640625 216.984375 C 226.296875 216.703125 231.523438 216.171875 234.347656 215.714844 C 237.074219 215.234375 241.757812 214.570312 244.773438 214.117188 C 249.328125 213.503906 260.296875 210.761719 271.941406 207.359375 C 273.320312 206.953125 277.265625 205.964844 280.695312 205.023438 C 288.585938 203.015625 301.546875 198.699219 307.03125 196.160156 C 309.371094 195.09375 312.449219 194.03125 313.925781 193.695312 C 315.464844 193.371094 316.683594 192.554688 316.683594 191.945312 C 316.683594 191.238281 317.453125 190.882812 318.960938 191.082031 C 321.015625 191.285156 326.757812 188.621094 327.367188 187.222656 C 327.589844 186.816406 328.457031 186.5625 329.386719 186.5625 C 330.863281 186.5625 336.410156 183.742188 337.535156 182.425781 C 337.824219 182.148438 339.746094 180.949219 341.960938 179.832031 C 344.140625 178.691406 345.90625 177.550781 345.90625 177.21875 C 345.90625 176.886719 347.832031 175.621094 350.234375 174.476562 C 352.578125 173.285156 356.652344 170.539062 359.183594 168.355469 C 361.816406 166.144531 364.957031 163.886719 366.175781 163.28125 C 367.429688 162.589844 368.648438 161.476562 368.902344 160.664062 C 369.160156 159.925781 370.378906 158.808594 371.628906 158.148438 C 374.804688 156.597656 377.660156 153.933594 377.660156 152.585938 C 377.660156 152.003906 378.046875 151.523438 378.527344 151.523438 C 379.9375 151.523438 398.863281 132.246094 400.949219 128.71875 C 401.941406 126.992188 402.742188 124.855469 402.742188 123.972656 C 402.742188 122.925781 403.351562 122.320312 404.410156 122.320312 C 405.339844 122.320312 406.175781 121.835938 406.175781 121.300781 C 406.175781 120.71875 408.421875 117.773438 411.242188 114.828125 C 414.035156 111.859375 416.855469 108.355469 417.53125 107.109375 C 418.78125 104.570312 419.453125 104.164062 419.453125 105.96875 C 419.453125 107.488281 402.871094 132.324219 401.84375 132.324219 C 401.394531 132.324219 401.074219 132.855469 401.074219 133.46875 C 401.074219 134.582031 395.335938 142.660156 393.3125 144.257812 C 392.734375 144.792969 391.035156 146.722656 389.753906 148.523438 C 388.4375 150.328125 385.199219 153.730469 382.730469 156.140625 C 374.195312 164.140625 368.902344 168.863281 366.433594 170.820312 C 365.023438 171.886719 363.355469 173.285156 362.617188 174.019531 C 357.261719 179.679688 343.082031 189.6875 333.011719 194.96875 C 329.804688 196.617188 324.414062 199.566406 321.144531 201.417969 C 312.035156 206.574219 296.734375 213.632812 291.183594 215.234375 C 288.363281 216.046875 283.902344 217.367188 281.175781 218.226562 C 265.910156 223.105469 235.308594 229.578125 224.691406 230.265625 C 223.570312 230.316406 221.839844 230.644531 220.972656 230.972656 C 217.699219 232.042969 194.027344 233.972656 183.730469 233.972656 C 177.957031 233.972656 164.453125 234.25 153.613281 234.53125 C 142.867188 234.785156 133.566406 235.191406 133.019531 235.320312 C 132.507812 235.445312 131.960938 235.445312 131.769531 235.320312 C 131.640625 235.113281 127.664062 234.785156 123.140625 234.457031 C 118.523438 234.175781 111.015625 233.4375 106.398438 232.777344 C 101.8125 232.121094 95.972656 231.457031 93.40625 231.257812 C 90.9375 231.050781 85.902344 230.441406 82.179688 229.984375 C 78.523438 229.503906 72.910156 228.921875 69.734375 228.640625 C 66.625 228.386719 63.417969 227.902344 62.679688 227.523438 C 61.140625 226.710938 53.183594 224.703125 50.171875 224.375 C 49.113281 224.324219 47.667969 223.714844 47.027344 223.179688 C 46.351562 222.574219 45.550781 222.367188 45.292969 222.644531 C 45.007812 222.851562 43.5625 222.574219 41.992188 221.910156 C 38.046875 220.238281 37.050781 220.4375 35.929688 222.773438 C 34.324219 226.378906 33.714844 225.109375 33.585938 218.050781 C 33.523438 214.242188 32.847656 207.769531 32.113281 203.707031 C 31.375 199.566406 30.988281 196.085938 31.117188 195.882812 C 31.308594 195.679688 32.113281 196.824219 32.914062 198.371094 C 34.710938 201.902344 34.324219 201.570312 38.011719 202.433594 C 50.105469 205.378906 72.816406 206.953125 98.925781 206.828125 Z M 79.101562 203.222656 C 80.191406 203.222656 80.800781 203.578125 80.511719 204.035156 C 79.839844 205.023438 79.96875 205.023438 78.363281 204.035156 C 77.371094 203.371094 77.5 203.222656 79.101562 203.222656 Z M 83.335938 203.222656 C 84.265625 203.222656 85.195312 203.578125 85.550781 204.035156 C 85.804688 204.492188 85.261719 204.898438 84.332031 204.898438 C 83.464844 204.898438 82.4375 204.492188 82.179688 204.035156 C 81.859375 203.578125 82.40625 203.222656 83.335938 203.222656 Z M 427.632812 145.046875 C 425.195312 149.71875 423.273438 153.804688 423.273438 154.0625 C 423.273438 154.261719 422.726562 155 422.214844 155.738281 C 421.605469 156.398438 417.851562 161.601562 413.96875 167.339844 C 410.023438 173.003906 405.46875 179.199219 403.960938 181.027344 C 402.421875 182.804688 401.074219 184.632812 401.074219 185.015625 C 401.074219 185.878906 397.578125 189.890625 392.222656 195.222656 C 380.738281 206.574219 372.625 214.039062 371.984375 214.039062 C 371.566406 214.039062 370.285156 215.308594 369.226562 216.910156 C 367.429688 219.574219 365.28125 221.046875 354.726562 226.960938 C 352.449219 228.308594 351.039062 229.503906 351.648438 229.707031 C 352.386719 229.984375 351.648438 231.101562 349.660156 232.933594 C 347.957031 234.457031 346.355469 235.726562 346.164062 235.726562 C 345.96875 235.726562 343.691406 237.78125 341.160156 240.320312 C 338.59375 242.859375 336.121094 244.917969 335.671875 244.917969 C 335.191406 244.917969 333.042969 245.984375 330.925781 247.332031 C 322.363281 252.867188 283.292969 272.417969 280.890625 272.417969 C 280.441406 272.417969 277.265625 273.535156 273.929688 274.933594 C 270.527344 276.277344 266.839844 277.417969 265.652344 277.417969 C 264.5 277.417969 262.636719 277.953125 261.449219 278.539062 C 260.296875 279.144531 256.894531 279.957031 253.914062 280.289062 C 247.113281 281.074219 247.050781 281.074219 241.082031 282.34375 C 238.421875 282.957031 234.285156 283.539062 231.941406 283.742188 C 226.039062 284.226562 187.261719 284.808594 186.84375 284.480469 C 186.714844 284.277344 182.128906 283.945312 176.644531 283.691406 C 164.101562 283.035156 160.894531 282.75 156.179688 282.144531 C 151.945312 281.558594 148.929688 281.203125 136.101562 279.886719 C 126.992188 279.019531 116.628906 277.417969 106.207031 275.289062 C 98.796875 273.8125 76.441406 266.675781 76.023438 265.6875 C 75.894531 265.28125 75.15625 264.925781 74.417969 264.925781 C 73.296875 264.925781 66.882812 262.082031 54.179688 255.859375 C 52.222656 254.921875 52.222656 254.921875 53.953125 255.199219 C 55.910156 255.605469 56.585938 254.542969 54.789062 253.804688 C 54.179688 253.523438 54.308594 253.324219 55.171875 253.324219 C 55.910156 253.273438 56.777344 253.601562 57.128906 254.058594 C 57.386719 254.542969 58.796875 254.921875 60.273438 254.921875 C 61.71875 254.921875 65.214844 255.734375 67.941406 256.671875 C 75.382812 259.214844 86.671875 261.804688 90.746094 261.878906 C 92.671875 261.929688 94.304688 262.210938 94.304688 262.539062 C 94.304688 263.148438 98.25 263.933594 104.410156 264.546875 C 106.878906 264.800781 109.285156 265.332031 109.832031 265.792969 C 110.34375 266.199219 115.027344 266.933594 120.320312 267.417969 C 125.515625 267.871094 134.367188 268.863281 139.851562 269.546875 C 152.074219 271.070312 158.679688 271.402344 159.226562 270.488281 C 159.417969 270.132812 160.125 270.210938 160.703125 270.664062 C 161.3125 271.199219 165.128906 271.402344 170.195312 271.273438 C 174.847656 271.070312 178.921875 271.199219 179.175781 271.476562 C 179.371094 271.679688 182.867188 271.882812 186.84375 271.757812 C 192.230469 271.605469 194.605469 271.933594 196.082031 272.875 C 197.683594 274.015625 199.960938 274.144531 209.519531 273.738281 C 215.808594 273.484375 222.640625 273.078125 224.691406 272.796875 C 226.777344 272.621094 230.53125 272.214844 233.0625 272.011719 C 235.628906 271.757812 239.894531 270.996094 242.71875 270.335938 C 245.445312 269.675781 251.25 268.53125 255.613281 267.796875 C 260.007812 267.011719 265.652344 265.792969 268.1875 265.128906 C 277.007812 262.664062 283.648438 260.609375 286.179688 259.542969 C 287.496094 258.933594 292.050781 257.054688 296.222656 255.328125 C 305.84375 251.390625 306.582031 251.0625 309.5625 249.054688 C 310.945312 248.195312 313.382812 246.796875 315.015625 245.933594 C 316.621094 245.121094 318.480469 243.847656 319.15625 243.113281 C 319.894531 242.378906 323.902344 239.660156 328.167969 236.992188 C 332.464844 234.378906 337.46875 230.902344 339.332031 229.375 C 341.222656 227.855469 343.210938 226.585938 343.820312 226.585938 C 344.429688 226.585938 347.1875 224.703125 349.851562 222.367188 C 352.511719 220.109375 354.984375 218.226562 355.273438 218.226562 C 357.453125 218.179688 365.953125 211.296875 376.121094 201.371094 C 378.335938 199.160156 380.738281 197.355469 381.414062 197.355469 C 382.152344 197.355469 382.664062 196.949219 382.664062 196.492188 C 382.664062 196.035156 384.84375 193.625 387.410156 191.082031 C 390.042969 188.621094 392 186.5625 391.773438 186.5625 C 391.484375 186.5625 393.632812 184.226562 396.457031 181.355469 C 402.421875 175.214844 405.789062 171.277344 411.308594 164.394531 C 413.519531 161.679688 415.671875 159.011719 416.117188 158.402344 C 416.566406 157.871094 416.984375 157.132812 416.984375 156.726562 C 416.984375 156.398438 418.042969 154.746094 419.328125 153.148438 C 420.671875 151.597656 421.957031 149.59375 422.214844 148.855469 C 423.335938 145.933594 430.585938 135.652344 431.226562 136.132812 C 431.644531 136.3125 430.007812 140.398438 427.632812 145.046875 Z M 416.792969 181.738281 C 414.835938 184.078125 412.976562 186.410156 412.589844 186.894531 C 411.5625 188.417969 405.789062 195.09375 403.835938 197.152344 C 402.808594 198.21875 401.394531 200.097656 400.753906 201.371094 C 400.113281 202.636719 398.605469 204.769531 397.324219 206.09375 C 396.105469 207.511719 393.730469 210.304688 392.03125 212.363281 C 390.394531 214.421875 387.957031 216.984375 386.769531 218.050781 C 385.488281 219.039062 382.152344 222.238281 379.199219 225.058594 C 376.3125 227.855469 372.464844 231.332031 370.570312 232.777344 C 368.777344 234.328125 364.832031 237.78125 361.878906 240.597656 C 358.929688 243.46875 356.265625 245.730469 355.945312 245.730469 C 355.59375 245.730469 355.078125 246.339844 354.789062 247.074219 C 354.46875 247.9375 354.664062 248.117188 355.335938 247.738281 C 355.945312 247.382812 355.65625 247.9375 354.789062 248.929688 C 353.925781 249.917969 352.578125 250.65625 351.839844 250.53125 C 350.972656 250.402344 350.589844 250.859375 350.78125 251.800781 C 350.910156 252.660156 350.523438 253.273438 349.660156 253.273438 C 348.921875 253.273438 348.566406 252.867188 348.921875 252.332031 C 349.304688 251.671875 348.953125 251.671875 347.765625 252.332031 C 346.773438 252.867188 345.746094 253.652344 345.425781 254.210938 C 345.007812 254.871094 345.230469 254.921875 346.035156 254.542969 C 346.613281 254.210938 346.289062 254.71875 345.230469 255.660156 C 344.109375 256.671875 342.667969 257.386719 342.089844 257.386719 C 341.414062 257.386719 340.902344 257.792969 340.902344 258.273438 C 340.902344 258.730469 340.613281 259.0625 340.292969 259.007812 C 338.816406 258.730469 337.339844 259.136719 337.824219 259.59375 C 338.335938 260.128906 334.070312 264.0625 333.011719 264.0625 C 332.660156 264.0625 331.183594 264.925781 329.804688 265.941406 C 326.308594 268.40625 324.253906 269.675781 321.65625 270.742188 C 320.566406 271.199219 318.996094 271.933594 318.320312 272.417969 C 317.679688 272.875 315.753906 273.867188 314.152344 274.601562 C 310.207031 276.402344 308.3125 277.417969 303.085938 280.542969 C 300.617188 282.015625 295.933594 284.148438 292.789062 285.292969 C 279.574219 290.015625 278.097656 290.625 279.09375 290.957031 C 279.703125 291.078125 278.675781 291.285156 276.878906 291.363281 C 275.082031 291.363281 271.585938 291.96875 269.117188 292.679688 C 264.5 294.078125 242.046875 296.695312 231.8125 297.023438 C 228.507812 297.097656 223.828125 297.429688 221.355469 297.683594 C 215.742188 298.367188 196.914062 299.230469 183.316406 299.4375 C 177.832031 299.5625 172.761719 299.894531 172.023438 300.222656 C 171.351562 300.503906 170.292969 300.425781 169.652344 300.019531 C 169.007812 299.636719 165.609375 299.285156 161.984375 299.230469 C 158.359375 299.15625 151.496094 298.367188 146.8125 297.355469 C 142.035156 296.414062 137.222656 295.5 136.035156 295.347656 C 134.847656 295.148438 131.640625 294.484375 128.882812 293.824219 C 126.222656 293.089844 122.851562 292.351562 121.441406 292.148438 C 117.046875 291.414062 103.191406 288.210938 98.925781 286.890625 C 89.558594 284.148438 83.722656 282.144531 82.148438 281.152344 C 81.121094 280.542969 78.71875 279.601562 76.632812 279.019531 C 73.230469 277.953125 64.1875 273.535156 53.3125 267.667969 C 50.84375 266.269531 47.089844 264.269531 45.167969 263.277344 C 39.808594 260.484375 41.992188 259.542969 48.375 261.878906 C 51.292969 262.996094 54.117188 264.011719 54.5625 264.0625 C 55.046875 264.21875 56.296875 264.597656 57.386719 265.003906 C 58.507812 265.488281 60.113281 265.535156 60.980469 265.28125 C 62.070312 264.925781 62.550781 265.207031 62.550781 266.144531 C 62.550781 266.804688 63.0625 267.417969 63.671875 267.417969 C 64.285156 267.417969 67.746094 268.40625 71.4375 269.597656 C 75.027344 270.816406 78.589844 271.882812 79.230469 271.933594 C 79.9375 272.0625 81.539062 272.621094 82.855469 273.152344 C 84.136719 273.6875 85.933594 274.066406 86.769531 274.066406 C 87.632812 274.066406 88.5625 274.472656 88.886719 274.933594 C 89.140625 275.414062 89.75 275.539062 90.199219 275.289062 C 90.714844 275.007812 91.578125 275.210938 92.222656 275.746094 C 92.894531 276.351562 94.882812 276.609375 96.777344 276.480469 C 98.636719 276.277344 100.113281 276.351562 100.113281 276.609375 C 100.113281 277.34375 106.878906 279.019531 111.820312 279.550781 C 114.386719 279.808594 117.785156 280.417969 119.390625 280.746094 C 120.992188 281.152344 124.519531 281.6875 127.34375 281.964844 C 130.070312 282.296875 134.753906 282.878906 137.769531 283.363281 C 140.785156 283.871094 145.082031 284.402344 147.390625 284.554688 C 149.667969 284.757812 152.8125 285.089844 154.351562 285.34375 C 157.046875 285.828125 167.085938 286.613281 174.140625 286.941406 C 175.96875 287.019531 178.632812 287.347656 179.980469 287.679688 C 187.453125 289.433594 224.917969 290.015625 227.515625 288.492188 C 227.996094 288.210938 230.785156 288.085938 233.835938 288.160156 C 236.914062 288.210938 241.5625 287.882812 244.386719 287.425781 C 247.113281 286.941406 251.121094 286.410156 253.273438 286.285156 C 255.421875 286.078125 257.699219 285.621094 258.277344 285.292969 C 259.140625 284.757812 259.238281 284.886719 258.371094 285.875 C 257.507812 286.941406 257.699219 287.09375 259.847656 286.765625 C 261.289062 286.5625 262.09375 286.027344 261.773438 285.542969 C 261.449219 285.015625 261.613281 284.960938 262.222656 285.292969 C 263.632812 286.15625 270.945312 284.277344 277.230469 281.484375 C 280.152344 280.136719 282.972656 279.070312 283.421875 279.070312 C 283.902344 279.070312 286.246094 278.207031 288.585938 277.089844 C 293.335938 274.882812 295.675781 273.941406 297.28125 273.609375 C 297.953125 273.484375 300.328125 272.46875 302.765625 271.351562 C 305.105469 270.210938 307.960938 268.863281 309.117188 268.328125 C 313.507812 266.398438 322.171875 261.066406 326.339844 257.664062 C 328.230469 256.140625 330.253906 254.921875 330.863281 254.921875 C 332.273438 254.921875 350.910156 240.804688 358.414062 234.050781 C 359.152344 233.386719 360.886719 232.246094 362.136719 231.585938 C 363.484375 230.847656 364.734375 229.65625 364.957031 228.84375 C 365.152344 228.054688 365.824219 227.371094 366.433594 227.371094 C 367.042969 227.371094 368.292969 226.101562 369.289062 224.5 C 370.285156 222.925781 371.375 221.632812 371.726562 221.707031 C 373.332031 222.167969 375.992188 220.4375 375.992188 218.964844 C 375.992188 218.101562 376.539062 217.367188 377.179688 217.367188 C 378.398438 217.367188 387.699219 208.375 387.699219 207.234375 C 387.699219 206.90625 388.503906 206.445312 389.433594 206.09375 C 390.296875 205.835938 391.613281 204.492188 392.351562 203.171875 C 393.058594 201.824219 394.179688 200.707031 394.851562 200.707031 C 395.527344 200.707031 396.070312 200.429688 396.070312 200.097656 C 396.070312 199.691406 396.9375 199.109375 397.898438 198.625 C 398.992188 198.167969 399.921875 197.152344 400.113281 196.367188 C 400.242188 195.554688 403.546875 191.617188 407.425781 187.632812 C 411.308594 183.566406 414.449219 180.011719 414.449219 179.679688 C 414.449219 179.277344 414.933594 179.019531 415.507812 179.019531 C 416.117188 178.945312 417.464844 177.09375 418.589844 174.808594 C 419.648438 172.546875 420.929688 170.667969 421.347656 170.667969 C 421.730469 170.667969 422.855469 169.347656 423.882812 167.621094 C 424.875 165.945312 425.804688 165.003906 426.03125 165.539062 C 426.480469 166.933594 420.867188 176.8125 416.792969 181.738281 Z M 414.386719 199.894531 C 414.035156 199.894531 413.519531 200.628906 413.230469 201.496094 C 412.910156 202.433594 411.371094 204.769531 409.703125 206.75 C 408.035156 208.707031 405.085938 212.769531 403.128906 215.714844 C 399.34375 221.503906 386.289062 235.320312 378.140625 242.046875 C 375.382812 244.332031 371.855469 247.332031 370.15625 248.726562 C 368.550781 250.125 365.761719 252.382812 363.867188 253.730469 C 362.070312 255.074219 360.082031 256.671875 359.472656 257.207031 C 358.800781 257.792969 357.742188 258.605469 356.941406 259.007812 C 354.917969 260.128906 347.574219 266.804688 347.574219 267.542969 C 347.574219 268.28125 352.511719 265.207031 356.714844 261.804688 C 360.789062 258.476562 366.304688 254.921875 367.234375 254.921875 C 368.550781 255 363.546875 259.0625 362.136719 259.0625 C 361.527344 259.0625 360.949219 259.414062 360.949219 259.796875 C 360.949219 260.128906 358.414062 262.210938 355.335938 264.34375 C 352.160156 266.476562 347.957031 269.753906 345.90625 271.605469 C 343.820312 273.484375 339.332031 276.480469 335.867188 278.332031 C 332.464844 280.136719 328.328125 282.34375 326.726562 283.210938 C 325.121094 284.074219 323.230469 285.015625 322.492188 285.292969 C 321.816406 285.542969 318.609375 287.222656 315.402344 289.078125 C 312.195312 290.957031 305.234375 294.5625 299.941406 297.148438 C 294.648438 299.691406 290.125 302.101562 289.933594 302.433594 C 289.066406 303.625 283.292969 305.914062 281.433594 305.757812 C 277.554688 305.429688 275.949219 305.835938 274.023438 307.488281 C 272.933594 308.425781 271.523438 308.957031 270.976562 308.753906 C 270.398438 308.550781 269.664062 308.707031 269.375 309.160156 C 269.117188 309.566406 267.867188 309.972656 266.519531 309.972656 C 265.171875 309.972656 263.824219 310.355469 263.566406 310.835938 C 263.246094 311.292969 262.347656 311.5 261.484375 311.242188 C 260.714844 310.964844 257.21875 311.5 253.882812 312.4375 C 250.480469 313.429688 245.832031 314.367188 243.519531 314.570312 C 241.210938 314.824219 237.8125 315.179688 236.015625 315.433594 C 231.523438 315.964844 190.886719 316.777344 190.402344 316.296875 C 190.210938 316.117188 184.726562 315.710938 178.3125 315.433594 C 166.25 314.898438 163.363281 314.570312 146.941406 311.625 C 141.648438 310.707031 135.972656 309.769531 134.367188 309.566406 C 132.699219 309.441406 130.550781 308.90625 129.558594 308.375 C 128.59375 307.84375 126.476562 307.4375 124.875 307.4375 C 123.207031 307.4375 121.859375 307.152344 121.859375 306.773438 C 121.859375 306.417969 120.125 305.632812 117.914062 305.023438 C 115.699219 304.4375 112.8125 303.5 111.433594 302.890625 C 110.085938 302.308594 106.878906 301.160156 104.34375 300.347656 C 101.8125 299.5625 99.375 298.625 98.925781 298.292969 C 98.445312 298.039062 96.902344 297.683594 95.589844 297.554688 C 94.144531 297.503906 92.894531 297.023438 92.765625 296.617188 C 92.636719 296.160156 91.964844 295.753906 91.355469 295.753906 C 90.070312 295.753906 80.511719 291.414062 65.789062 284.148438 C 57.128906 279.808594 46.226562 272.621094 47.089844 271.757812 C 47.765625 270.996094 55.171875 273.535156 55.558594 274.550781 C 55.785156 275.132812 57.003906 275.871094 58.1875 276.152344 C 59.472656 276.480469 63.546875 278.207031 67.363281 280.007812 C 71.082031 281.8125 74.773438 283.285156 75.445312 283.285156 C 76.183594 283.285156 76.730469 283.617188 76.730469 284.023438 C 76.730469 284.402344 78.589844 284.960938 80.835938 285.292969 C 83.144531 285.542969 85.195312 286.15625 85.484375 286.484375 C 85.902344 287.222656 89.335938 288.160156 93.695312 288.746094 C 94.980469 288.949219 97.351562 289.683594 99.117188 290.421875 C 100.847656 291.15625 103 291.894531 103.929688 292.097656 C 106.398438 292.476562 116.117188 294.027344 118.523438 294.355469 C 119.710938 294.5625 121.410156 294.96875 122.308594 295.296875 C 126.476562 296.898438 128.464844 297.355469 132.765625 297.8125 C 135.296875 298.167969 137.894531 298.902344 138.570312 299.4375 C 139.789062 300.425781 151.273438 302.179688 160.316406 302.6875 C 162.371094 302.8125 164.617188 303.246094 165.128906 303.574219 C 165.671875 303.882812 167.535156 304.082031 169.296875 304.03125 C 171.03125 303.957031 173.402344 304.160156 174.558594 304.488281 C 175.714844 304.820312 186.585938 305.023438 198.777344 304.894531 C 226.039062 304.714844 228.796875 304.714844 231.394531 304.894531 C 233.289062 305.101562 239.960938 304.285156 251.859375 302.433594 C 257.632812 301.566406 268.925781 299.230469 271.941406 298.292969 C 273.320312 297.886719 276.6875 297.097656 279.476562 296.566406 C 282.234375 295.957031 285.636719 295.019531 286.984375 294.484375 C 288.363281 293.898438 292.402344 292.425781 295.933594 291.234375 C 302.957031 288.871094 307.09375 286.765625 311.679688 283.085938 C 313.285156 281.8125 314.921875 280.746094 315.464844 280.746094 C 315.949219 280.746094 317.070312 280.085938 317.9375 279.273438 C 318.867188 278.488281 321.496094 276.480469 323.773438 274.933594 C 326.117188 273.410156 330.316406 270.335938 333.140625 268.152344 C 335.996094 265.867188 338.6875 264.0625 339.074219 264.0625 C 339.457031 264.0625 340.550781 263.277344 341.414062 262.335938 C 342.28125 261.347656 344.367188 259.871094 346.035156 259.0625 C 347.636719 258.195312 349.660156 256.546875 350.429688 255.402344 C 351.167969 254.210938 352.257812 253.273438 352.867188 253.195312 C 353.378906 253.195312 354.984375 252.050781 356.332031 250.730469 C 357.675781 249.335938 359.152344 248.269531 359.667969 248.269531 C 360.210938 248.269531 361.207031 247.457031 362.007812 246.589844 C 362.808594 245.652344 363.996094 244.917969 364.703125 244.917969 C 365.34375 244.917969 366.371094 244.253906 366.949219 243.46875 C 368.230469 241.796875 375.449219 235.777344 377.789062 234.457031 C 378.65625 233.972656 381.957031 231.050781 385.070312 227.980469 C 388.246094 224.90625 391.261719 222.367188 391.710938 222.367188 C 392.511719 222.367188 396.839844 217.898438 401.523438 212.105469 C 402.871094 210.433594 406.015625 206.90625 408.421875 204.3125 C 410.859375 201.695312 412.785156 199.234375 412.785156 198.902344 C 412.785156 198.5 413.328125 198.21875 413.90625 198.21875 C 414.515625 198.21875 415.445312 197.304688 415.992188 196.160156 C 417.59375 192.683594 421.25 187.222656 421.730469 187.632812 C 422.46875 188.417969 415.574219 199.894531 414.386719 199.894531 Z M 419.453125 211.574219 C 418.78125 212.640625 418.652344 212.640625 418.652344 211.371094 C 418.652344 210.636719 419.070312 209.769531 419.453125 209.441406 C 419.9375 209.164062 420.320312 209.242188 420.320312 209.648438 C 420.320312 209.976562 419.9375 210.839844 419.453125 211.574219 Z M 390.234375 254.71875 C 390.234375 255.402344 386.960938 258.324219 378.589844 265.078125 C 371.375 270.867188 370.15625 271.351562 375.929688 266.070312 C 378.878906 263.40625 382.953125 259.59375 385.007812 257.585938 C 388.566406 254.210938 390.234375 253.324219 390.234375 254.71875 Z M 394.371094 251.59375 C 394.371094 252.050781 393.828125 252.382812 393.089844 252.382812 C 392.351562 252.382812 392.03125 252.050781 392.320312 251.59375 C 392.574219 251.113281 393.183594 250.730469 393.632812 250.730469 C 394.050781 250.730469 394.371094 251.113281 394.371094 251.59375 Z M 401.394531 244.054688 C 401.140625 245.195312 400.882812 246.109375 400.785156 246.109375 C 400.753906 246.109375 399.792969 246.667969 398.796875 247.175781 C 397.773438 247.785156 396.9375 247.9375 396.9375 247.457031 C 396.9375 247.074219 397.578125 246.464844 398.445312 246.1875 C 399.34375 245.933594 400.464844 244.867188 401.011719 243.847656 C 401.941406 242.046875 401.941406 242.046875 401.394531 244.054688 Z M 417.722656 214.902344 C 416.566406 217.164062 411.242188 225.058594 410.28125 225.722656 C 410.023438 225.972656 408.292969 228.386719 406.496094 231.101562 C 402.679688 236.992188 386.769531 252.988281 375 262.871094 C 372.785156 264.675781 371.019531 266.605469 371.019531 267.210938 C 370.988281 267.746094 370.15625 268.40625 369.097656 268.660156 C 368.101562 268.941406 366.5625 270.285156 365.761719 271.679688 C 365.023438 273.003906 363.289062 274.601562 362.007812 275.132812 C 359.730469 276.152344 357.804688 277.675781 352.257812 283.085938 C 350.652344 284.554688 348.953125 285.75 348.503906 285.75 C 347.957031 285.75 347.574219 286.207031 347.574219 286.816406 C 347.574219 287.425781 346.164062 288.621094 344.496094 289.480469 C 342.761719 290.421875 340.164062 291.96875 338.722656 293.039062 C 337.339844 294.027344 334.328125 295.703125 332.050781 296.695312 C 329.804688 297.683594 326.5625 299.4375 324.832031 300.503906 C 323.101562 301.566406 321.304688 302.433594 320.757812 302.433594 C 320.214844 302.433594 317.808594 303.371094 315.464844 304.488281 C 307.09375 308.5 299.683594 311.625 298.691406 311.625 C 298.082031 311.625 297.152344 312.15625 296.605469 312.816406 C 295.996094 313.578125 295.003906 314.113281 294.328125 314.113281 C 293.65625 314.113281 290.992188 315.105469 288.363281 316.296875 C 281.882812 319.242188 278.835938 320.359375 271.523438 322.441406 C 268.058594 323.382812 263.566406 324.78125 261.484375 325.4375 C 259.429688 326.175781 257.34375 326.835938 256.894531 326.910156 C 256.414062 327.039062 255.484375 327.445312 254.8125 327.902344 C 254.136719 328.308594 252.824219 328.585938 251.957031 328.382812 C 250.996094 328.257812 248.140625 328.585938 245.382812 329.167969 C 241.917969 329.910156 240.25 329.984375 239.609375 329.296875 C 238.964844 328.640625 238.355469 328.714844 237.492188 329.574219 C 236.816406 330.3125 234.476562 330.847656 231.941406 330.921875 C 229.601562 330.972656 226.714844 331.179688 225.527344 331.378906 C 221.292969 332.246094 177.347656 331.785156 172.507812 330.921875 C 165.867188 329.703125 158.96875 328.917969 155.34375 328.96875 C 153.742188 328.96875 152.234375 328.714844 151.945312 328.257812 C 151.367188 327.242188 142.128906 325.515625 140.558594 326.175781 C 139.851562 326.375 137.703125 325.921875 135.746094 324.980469 C 132.699219 323.582031 125.195312 322.898438 126.734375 324.167969 C 127.855469 325.105469 143.636719 328.460938 144.792969 328.054688 C 145.402344 327.773438 146.683594 328.054688 147.453125 328.640625 C 148.929688 329.652344 156.082031 331.253906 168.273438 333.257812 C 183.988281 335.851562 222.511719 336.992188 226.296875 334.988281 C 227.578125 334.300781 228.0625 334.300781 228.0625 335.0625 C 228.0625 335.644531 228.992188 335.773438 231.074219 335.445312 C 233.320312 334.988281 233.929688 335.113281 233.417969 335.851562 C 232.9375 336.636719 233.609375 336.789062 236.078125 336.382812 C 237.90625 336.050781 239.414062 335.445312 239.609375 334.988281 C 239.734375 334.503906 241.019531 334.121094 242.367188 334.121094 C 243.679688 334.121094 246.183594 333.589844 247.851562 332.851562 C 249.453125 332.191406 251.988281 331.632812 253.464844 331.632812 C 254.941406 331.632812 259.6875 330.847656 264.050781 329.859375 C 268.378906 328.917969 272.871094 327.902344 274.023438 327.699219 C 285.378906 325.363281 296.253906 321.707031 307.511719 316.578125 C 314.601562 313.300781 322.363281 309.898438 324.703125 309.035156 C 328.328125 307.636719 333.523438 304.765625 340.195312 300.347656 C 348.246094 295.019531 350.972656 293.089844 351.519531 292.226562 C 351.902344 291.691406 354.054688 289.8125 356.394531 288.085938 C 358.671875 286.359375 360.949219 284.605469 361.398438 284.226562 C 361.945312 283.820312 363.226562 283.035156 364.347656 282.398438 C 365.472656 281.8125 367.042969 280.492188 367.8125 279.476562 C 368.648438 278.488281 370.378906 277.214844 371.757812 276.609375 C 373.105469 276.074219 374.839844 274.753906 375.511719 273.6875 C 376.183594 272.621094 378.65625 270.539062 380.996094 269.015625 C 383.339844 267.542969 385.199219 266.070312 385.199219 265.792969 C 385.199219 265.535156 386.671875 264.46875 388.375 263.40625 C 390.105469 262.335938 392.449219 260.203125 393.601562 258.730469 C 394.789062 257.207031 397.003906 254.871094 398.605469 253.523438 L 401.492188 251.113281 L 398.636719 255.328125 C 395.335938 260.277344 376.859375 278.539062 371.726562 282.015625 C 367.558594 284.808594 355.527344 294.6875 350.71875 299.359375 C 348.921875 301.035156 345.714844 303.5 343.5625 304.714844 C 341.414062 305.960938 339.457031 307.152344 339.203125 307.488281 C 339.007812 307.765625 335.609375 309.644531 331.730469 311.574219 C 327.785156 313.578125 324.03125 315.507812 323.355469 315.914062 C 319.730469 317.898438 308.183594 323.433594 304.113281 324.980469 C 301.609375 325.972656 297.28125 327.851562 294.519531 329.167969 C 291.792969 330.515625 289.101562 331.632812 288.585938 331.632812 C 288.042969 331.632812 285.445312 332.574219 282.8125 333.792969 C 277.007812 336.457031 271.074219 338.1875 264.433594 339.125 C 228.925781 344.050781 212.117188 345.191406 195.023438 343.847656 C 191.335938 343.519531 185.722656 343.113281 182.511719 342.910156 C 179.304688 342.734375 173.210938 342.121094 169.007812 341.664062 C 164.808594 341.179688 160.765625 340.980469 160.125 341.257812 C 159.417969 341.511719 157.300781 341.179688 155.3125 340.445312 C 153.292969 339.785156 151.367188 339.457031 150.886719 339.734375 C 149.894531 340.320312 158.648438 343.261719 159.964844 342.734375 C 161.3125 342.25 175.617188 343.925781 179.175781 344.941406 C 180.523438 345.320312 185.59375 345.933594 190.402344 346.261719 C 195.28125 346.515625 201.308594 346.921875 203.78125 347.125 C 214.621094 347.914062 222.320312 347.984375 222.703125 347.328125 C 222.894531 346.921875 224.179688 346.84375 225.398438 347.046875 C 226.648438 347.328125 227.164062 347.25 226.585938 346.996094 C 224.179688 345.855469 225.847656 345.066406 229.535156 345.527344 C 231.683594 345.777344 235.949219 346.132812 238.871094 346.183594 C 241.917969 346.261719 245.285156 346.589844 246.535156 346.921875 C 247.914062 347.328125 250.511719 347.046875 253.59375 346.183594 C 259.878906 344.457031 265.523438 343.191406 268.1875 342.910156 C 269.339844 342.78125 271.332031 342.199219 272.582031 341.589844 C 274.539062 340.722656 275.148438 340.648438 275.660156 341.511719 C 276.207031 342.398438 276.6875 342.398438 278.289062 341.511719 C 279.414062 340.929688 280.566406 340.039062 280.824219 339.734375 C 281.082031 339.300781 281.820312 339.125 282.492188 339.179688 C 284.226562 339.507812 287.847656 338.386719 296.125 334.78125 C 311.457031 328.179688 314.34375 327.851562 302.1875 334.121094 C 298.464844 335.925781 294.875 337.449219 294.007812 337.449219 C 293.171875 337.449219 292.308594 337.78125 292.050781 338.261719 C 291.792969 338.644531 290.0625 339.25 288.234375 339.507812 C 286.375 339.863281 285.121094 340.445312 285.285156 340.851562 C 285.570312 341.257812 284.160156 341.992188 282.234375 342.527344 C 280.214844 343.0625 277.136719 344.050781 275.402344 344.660156 C 273.609375 345.320312 272.003906 345.726562 271.8125 345.527344 C 271.585938 345.320312 268.378906 346.183594 264.785156 347.53125 C 261.097656 348.875 257.023438 349.992188 255.675781 349.992188 C 254.332031 349.992188 253.015625 350.324219 252.726562 350.78125 C 252.40625 351.261719 250.800781 351.667969 249.101562 351.667969 C 247.402344 351.667969 244.324219 352.050781 242.238281 352.582031 C 240.152344 353.066406 237.363281 353.675781 236.015625 353.855469 C 234.605469 354.054688 232.550781 354.386719 231.394531 354.589844 C 230.242188 354.792969 225.527344 355.324219 220.972656 355.78125 C 216.351562 356.265625 210.867188 357.054688 208.785156 357.535156 C 203.78125 358.652344 183.445312 358.929688 174.367188 357.992188 C 168.6875 357.460938 166.988281 357.003906 166.988281 355.988281 C 166.988281 354.867188 166.859375 354.867188 165.609375 355.988281 C 164.230469 357.207031 163.523438 357.207031 158.648438 356.0625 C 147.007812 353.472656 138.632812 350.65625 135.714844 348.320312 C 134.753906 347.578125 132.507812 346.3125 130.679688 345.371094 C 128.820312 344.507812 126.125 342.910156 124.746094 341.84375 C 123.335938 340.851562 121.730469 339.988281 121.183594 339.988281 C 120.703125 339.988281 119.964844 339.507812 119.644531 338.921875 C 118.90625 337.78125 117.046875 336.507812 112.972656 334.375 C 109.765625 332.777344 108.355469 330.441406 111.304688 331.582031 C 114.640625 332.902344 124.746094 335.722656 128.144531 336.332031 C 130.039062 336.585938 131.898438 337.121094 132.347656 337.398438 C 133.824219 338.261719 147.871094 340.523438 148.289062 339.9375 C 148.800781 339 146.394531 338.3125 141.167969 337.855469 C 138.632812 337.574219 134.625 336.714844 132.347656 335.851562 C 130.039062 334.988281 126.476562 333.792969 124.394531 333.183594 C 122.308594 332.574219 119.324219 331.304688 117.625 330.3125 C 116.019531 329.296875 112.8125 327.699219 110.566406 326.710938 C 104.183594 323.917969 102.675781 323.050781 102.675781 322.390625 C 102.675781 322.113281 101.8125 321.578125 100.785156 321.300781 C 99.726562 321.046875 97.578125 319.648438 95.910156 318.101562 C 94.304688 316.628906 91.707031 314.292969 90.070312 313.046875 C 88.402344 311.625 87.859375 310.914062 88.886719 311.242188 C 89.75 311.574219 91.355469 311.902344 92.347656 311.980469 C 93.375 311.980469 94.433594 312.3125 94.785156 312.640625 C 95.109375 313.046875 95.972656 313.300781 96.710938 313.300781 C 97.449219 313.300781 99.597656 314.035156 101.394531 314.976562 C 103.285156 315.839844 105.277344 316.578125 105.886719 316.578125 C 106.496094 316.628906 107.679688 317.441406 108.546875 318.507812 C 109.832031 319.976562 110.28125 320.105469 110.890625 319.292969 C 111.339844 318.582031 112.363281 318.378906 114.03125 318.785156 C 117.976562 319.726562 116.179688 318.710938 106.398438 314.648438 C 93.792969 309.238281 80.257812 302.558594 78.011719 300.425781 C 76.921875 299.488281 75.15625 298.167969 74.164062 297.429688 C 73.105469 296.769531 70.890625 294.96875 69.285156 293.492188 L 66.273438 290.828125 L 69.222656 291.285156 C 72.367188 291.769531 77.113281 293.542969 86.769531 297.683594 C 88.371094 298.417969 92.1875 299.765625 95.109375 300.753906 C 98.121094 301.695312 101.332031 302.8125 102.261719 303.246094 C 103.992188 304.03125 115.894531 307.230469 119.195312 307.84375 C 120.253906 307.96875 122.402344 308.90625 124.070312 309.898438 C 125.675781 310.835938 127.824219 311.625 128.882812 311.625 C 129.878906 311.625 133.503906 312.511719 136.902344 313.628906 C 140.300781 314.773438 143.445312 315.507812 143.765625 315.230469 C 144.117188 315.027344 146.71875 315.433594 149.476562 316.171875 C 152.234375 316.828125 156.5 317.515625 158.90625 317.566406 C 161.3125 317.640625 163.652344 317.972656 164.101562 318.304688 C 165.0625 319.117188 184.117188 320.917969 189.601562 320.765625 C 191.6875 320.714844 194.894531 320.640625 196.691406 320.5625 C 198.550781 320.511719 204.195312 320.640625 209.265625 320.765625 C 214.878906 320.96875 219.367188 320.714844 220.746094 320.105469 C 222.703125 319.292969 223.183594 319.371094 223.570312 320.359375 C 223.828125 321.097656 224.660156 321.503906 225.429688 321.246094 C 226.167969 321.046875 229.472656 320.640625 232.679688 320.359375 C 235.886719 320.105469 239.160156 319.726562 239.960938 319.445312 C 241.628906 318.964844 241.949219 320.433594 240.34375 321.046875 C 239.832031 321.300781 240.121094 321.503906 241.019531 321.578125 C 241.917969 321.578125 243.230469 321.246094 243.90625 320.765625 C 244.964844 320.105469 244.933594 319.976562 243.554688 319.976562 C 242.71875 319.976562 242.238281 319.726562 242.496094 319.445312 C 242.816406 319.117188 244.195312 319.371094 245.507812 319.902344 C 247.625 320.765625 248.878906 320.714844 253.273438 319.292969 C 256.222656 318.378906 260.425781 317.363281 262.765625 316.984375 C 265.042969 316.628906 267.511719 316.296875 268.1875 316.171875 C 268.859375 316.042969 273.734375 314.367188 279.027344 312.4375 C 284.289062 310.507812 290.125 308.375 291.988281 307.6875 C 293.785156 307.03125 296.222656 306.039062 297.40625 305.429688 C 298.5625 304.820312 302.089844 303.042969 305.171875 301.496094 C 308.21875 299.96875 310.785156 298.367188 310.785156 297.960938 C 310.785156 297.554688 311.296875 297.503906 312.003906 297.683594 C 312.644531 297.960938 313.382812 297.554688 313.636719 296.898438 C 314.023438 296.082031 314.730469 295.828125 315.464844 296.082031 C 316.203125 296.363281 317.871094 295.882812 319.058594 294.96875 C 320.339844 294.078125 322.972656 292.808594 324.832031 292.148438 C 326.726562 291.5625 330.253906 289.609375 332.722656 287.957031 C 344.558594 279.808594 348.246094 277.089844 350.910156 274.550781 C 352.511719 273.078125 356.84375 269.546875 360.53125 266.675781 C 364.222656 263.859375 367.972656 260.863281 368.902344 260 C 369.835938 259.214844 372.847656 256.671875 375.574219 254.542969 C 378.335938 252.332031 381.476562 249.71875 382.472656 248.800781 C 383.464844 247.785156 385.679688 245.855469 387.347656 244.460938 C 389.976562 242.324219 396.265625 236.511719 405.46875 227.726562 C 407.941406 225.316406 414.515625 218.050781 417.53125 214.292969 C 418.652344 212.972656 418.652344 212.972656 417.722656 214.902344 Z M 378.398438 283.871094 C 378.269531 284.355469 375.511719 286.691406 372.367188 289.078125 C 369.226562 291.488281 367.042969 292.679688 367.492188 291.820312 C 368.421875 290.140625 378.910156 282.398438 378.398438 283.871094 Z M 364.734375 296.566406 C 364.476562 297.023438 363.546875 297.429688 362.808594 297.429688 C 361.527344 297.355469 361.621094 297.226562 363.003906 296.160156 C 364.703125 294.890625 365.695312 295.09375 364.734375 296.566406 Z M 360.148438 300.347656 C 359.539062 301.035156 358.449219 301.617188 357.675781 301.617188 C 356.941406 301.617188 355.847656 302.023438 355.273438 302.636719 C 354.597656 303.296875 354.246094 303.296875 354.246094 302.6875 C 354.246094 301.566406 358 299.078125 359.792969 299.078125 C 360.949219 299.078125 361.011719 299.359375 360.148438 300.347656 Z M 325.761719 322.769531 C 325.570312 322.976562 324.511719 323.304688 323.355469 323.632812 L 321.304688 324.167969 L 323.355469 322.976562 C 325.121094 321.988281 326.886719 321.78125 325.761719 322.769531 Z M 315.402344 327.367188 C 312.386719 329.121094 311.679688 329.453125 311.679688 328.792969 C 311.679688 328.105469 317.582031 324.78125 318 325.160156 C 318.191406 325.363281 317.070312 326.375 315.402344 327.367188 Z M 45.007812 270.742188 C 44.621094 270.742188 44.011719 270.410156 43.753906 269.929688 C 43.402344 269.472656 43.820312 269.0625 44.460938 269.0625 C 45.199219 269.0625 45.808594 269.472656 45.808594 269.929688 C 45.808594 270.410156 45.488281 270.742188 45.007812 270.742188 Z M 41.605469 250.578125 C 41.605469 249.917969 49.238281 252.332031 50.363281 253.324219 C 51.484375 254.386719 50.296875 254.210938 45.617188 252.535156 C 43.402344 251.800781 41.605469 250.9375 41.605469 250.578125 Z M 428.820312 121.507812 C 429.238281 121.507812 429.496094 121.992188 429.496094 122.519531 C 429.496094 123.105469 428.886719 124.324219 428.148438 125.238281 L 426.800781 126.914062 L 427.410156 125.238281 C 427.761719 124.324219 428.082031 123.105469 428.082031 122.519531 C 428.082031 121.992188 428.402344 121.507812 428.820312 121.507812 Z M 422.824219 100.632812 C 422.824219 100.175781 423.207031 99.820312 423.753906 99.820312 C 424.203125 99.820312 424.332031 100.175781 424.074219 100.632812 C 423.816406 101.089844 423.398438 101.496094 423.207031 101.496094 C 423.015625 101.496094 422.824219 101.089844 422.824219 100.632812 Z M 422.949219 116.046875 C 423.882812 115.765625 425.195312 114.246094 425.804688 112.644531 C 426.480469 111.097656 427.410156 109.824219 427.890625 109.824219 C 428.886719 109.824219 428.949219 112.035156 427.890625 112.695312 C 427.410156 112.972656 425.933594 115.566406 424.457031 118.433594 C 423.078125 121.300781 420.996094 124.65625 419.871094 125.847656 C 418.71875 127.117188 417.785156 128.515625 417.785156 128.972656 C 417.785156 129.453125 417.464844 129.859375 417.050781 129.859375 C 416.664062 129.859375 415.445312 131.257812 414.386719 132.984375 C 413.328125 134.660156 411.980469 136.386719 411.371094 136.71875 C 410.761719 137.125 410.28125 137.78125 410.28125 138.265625 C 410.28125 138.722656 408.230469 141.871094 405.695312 145.324219 C 403.128906 148.726562 401.074219 151.722656 401.074219 152.078125 C 401.074219 152.335938 399.664062 154.136719 397.996094 156.015625 C 396.265625 157.945312 393.089844 161.476562 391.035156 163.9375 C 388.984375 166.402344 383.820312 171.9375 379.617188 176.226562 C 375.320312 180.546875 371.855469 184.484375 371.855469 184.960938 C 371.855469 185.421875 370.699219 186.15625 369.289062 186.691406 C 367.972656 187.148438 366.820312 187.808594 366.820312 188.214844 C 366.820312 189.355469 344.976562 205.683594 343.5 205.683594 C 343.082031 205.683594 342.28125 206.371094 341.609375 207.105469 C 341.03125 207.84375 338.464844 209.367188 336.058594 210.433594 C 333.652344 211.5 331.441406 212.972656 331.183594 213.632812 C 330.925781 214.292969 329.964844 214.902344 329.195312 214.902344 C 328.328125 214.902344 325.121094 216.171875 322.042969 217.769531 C 318.960938 219.445312 316.140625 220.691406 315.753906 220.691406 C 315.402344 220.691406 313.445312 221.832031 311.457031 223.105469 C 309.53125 224.449219 305.617188 226.585938 302.894531 227.777344 C 300.070312 228.992188 295.996094 230.847656 293.65625 231.914062 C 291.410156 232.980469 287.625 234.53125 285.285156 235.320312 C 277.425781 238.0625 270.976562 240.523438 268.121094 242.046875 C 266.519531 242.859375 264.691406 243.648438 263.953125 243.796875 C 263.3125 243.847656 260.714844 244.589844 258.148438 245.324219 C 253.335938 246.667969 244.515625 248.195312 238.101562 248.726562 C 236.015625 248.851562 233.546875 249.183594 232.582031 249.460938 C 231.683594 249.664062 228.863281 250.070312 226.394531 250.273438 C 216.800781 251.113281 208.171875 251.800781 202.59375 252.050781 L 202.59375 252.128906 C 199.386719 252.253906 188.609375 252.585938 178.695312 252.789062 C 161.3125 253.066406 153.003906 252.738281 129.429688 250.78125 C 123.207031 250.273438 115.699219 249.589844 112.683594 249.386719 C 109.703125 249.132812 104.410156 248.195312 100.976562 247.332031 C 97.511719 246.464844 90.9375 244.789062 86.351562 243.648438 C 81.730469 242.53125 77.050781 241.054688 75.894531 240.398438 C 74.773438 239.785156 71.5625 238.59375 68.839844 237.855469 C 66.015625 237.046875 63.191406 236.257812 62.550781 235.976562 C 61.84375 235.726562 60.949219 235.394531 60.464844 235.269531 C 54.660156 233.644531 41.605469 228.714844 41.605469 228.109375 C 41.605469 227.167969 43.082031 227.167969 43.691406 228.109375 C 43.882812 228.515625 45.902344 229.328125 48.085938 229.859375 C 53.570312 231.257812 72.785156 234.050781 73.519531 233.589844 C 73.839844 233.386719 74.386719 233.589844 74.644531 233.972656 C 74.898438 234.457031 78.011719 234.863281 81.605469 234.863281 C 91.066406 234.863281 107.230469 236.332031 114.386719 237.730469 C 121.601562 239.179688 136.902344 239.53125 136.902344 238.1875 C 136.902344 237.65625 137.511719 237.65625 138.632812 238.261719 C 140.558594 239.328125 154.769531 239.457031 155.089844 238.441406 C 155.21875 238.0625 157.976562 237.933594 161.183594 238.113281 C 164.839844 238.3125 167.46875 238.0625 168.175781 237.449219 C 169.007812 236.792969 169.554688 236.792969 169.941406 237.375 C 170.195312 237.855469 172.089844 238.1875 173.949219 238.1875 C 175.90625 238.113281 181.453125 238.261719 186.265625 238.390625 C 191.078125 238.59375 195.472656 238.390625 196.015625 237.984375 C 196.5625 237.578125 198.230469 237.25 199.769531 237.25 C 201.308594 237.171875 203.234375 236.792969 204.101562 236.382812 C 205.191406 235.851562 206.3125 235.925781 207.597656 236.589844 C 208.71875 237.171875 210.195312 237.324219 211.0625 236.992188 C 211.863281 236.589844 213.691406 236.105469 215.070312 235.925781 C 216.417969 235.777344 218.148438 235.269531 218.949219 234.863281 C 219.753906 234.378906 220.90625 234.25 221.582031 234.53125 C 222.222656 234.785156 224.371094 234.582031 226.296875 234.175781 C 228.316406 233.71875 230.851562 233.71875 232.261719 234.050781 C 233.609375 234.457031 234.765625 234.53125 234.765625 234.125 C 234.765625 233.796875 236.816406 233.644531 239.382812 233.921875 C 242.238281 234.125 244.386719 233.921875 245.15625 233.238281 C 245.832031 232.726562 246.730469 232.449219 247.175781 232.777344 C 247.625 233.058594 250.738281 232.320312 254.136719 231.257812 C 257.507812 230.113281 262.316406 228.714844 264.851562 228.179688 C 267.386719 227.648438 270.207031 226.914062 271.136719 226.507812 C 272.003906 226.179688 274.28125 225.644531 276.140625 225.363281 C 278.003906 225.109375 281.753906 223.839844 284.511719 222.445312 C 287.238281 221.097656 291.730469 219.445312 294.519531 218.789062 C 299.203125 217.722656 307.640625 214.242188 314.152344 210.6875 C 315.753906 209.769531 318.738281 208.300781 320.789062 207.359375 C 322.90625 206.371094 324.894531 205.023438 325.28125 204.441406 C 325.632812 203.777344 326.628906 203.222656 327.496094 203.222656 C 328.359375 203.222656 329.195312 202.964844 329.324219 202.5625 C 329.515625 202.230469 330.925781 201.292969 332.53125 200.429688 C 340.292969 196.417969 341.769531 195.5 341.769531 194.84375 C 341.769531 194.359375 342.34375 194.03125 343.082031 194.03125 C 344.847656 194.03125 349.242188 190.882812 349.242188 189.558594 C 349.242188 189.027344 350.300781 188.164062 351.582031 187.554688 C 354.375 186.359375 356.8125 184.835938 358.449219 183.210938 C 359.152344 182.503906 360.757812 181.40625 362.007812 180.75 C 363.289062 180.089844 364.285156 179.148438 364.285156 178.691406 C 364.285156 178.15625 365.152344 177.144531 366.175781 176.480469 C 367.171875 175.820312 369.03125 174.273438 370.25 173.003906 C 371.503906 171.734375 372.914062 170.667969 373.363281 170.667969 C 373.90625 170.667969 375 169.679688 375.800781 168.410156 C 377.4375 165.738281 380.804688 162.339844 381.796875 162.339844 C 382.953125 162.339844 390.234375 155.40625 390.234375 154.261719 C 390.234375 153.652344 390.714844 153.199219 391.292969 153.199219 C 391.902344 153.199219 392.894531 152.410156 393.601562 151.523438 C 394.242188 150.605469 395.238281 149.871094 395.847656 149.871094 C 396.457031 149.871094 396.9375 149.464844 396.9375 148.980469 C 396.9375 148.523438 398.0625 147 399.375 145.527344 C 400.785156 144.128906 401.941406 142.582031 401.941406 142.203125 C 401.941406 141.3125 407.683594 135.652344 408.550781 135.652344 C 408.902344 135.652344 409.703125 134.660156 410.378906 133.390625 C 411.019531 132.121094 411.726562 130.925781 411.980469 130.648438 C 412.910156 129.734375 416.984375 124.046875 416.984375 123.636719 C 416.984375 123.460938 417.914062 122.242188 419.070312 120.972656 C 420.191406 119.78125 421.121094 118.257812 421.121094 117.648438 C 421.121094 117.113281 421.957031 116.378906 422.949219 116.046875 Z M 40.355469 238.796875 C 39.457031 238.1875 37.917969 237.449219 37.050781 237.171875 C 36.121094 236.992188 34.710938 236.511719 33.90625 236.179688 C 32.785156 235.726562 32.175781 236.332031 31.117188 238.925781 C 29.386719 243.316406 19.058594 252.128906 19.058594 249.183594 C 19.058594 248.851562 21.140625 246.515625 23.675781 244.128906 C 26.175781 241.71875 28.230469 239.253906 28.230469 238.59375 C 28.230469 237.171875 33.042969 227.574219 34.839844 225.515625 C 36.441406 223.585938 37.660156 223.636719 37.050781 225.644531 C 36.730469 226.785156 36.988281 227.371094 38.046875 227.648438 C 39.394531 227.980469 39.394531 228.054688 38.046875 228.109375 C 37.277344 228.179688 36.121094 229.503906 35.382812 231.332031 C 33.90625 234.65625 34.324219 235.269531 38.269531 236.257812 C 39.457031 236.589844 41.796875 237.527344 43.464844 238.3125 C 45.199219 239.179688 47.507812 239.914062 48.628906 239.914062 C 49.6875 239.914062 51.101562 240.449219 51.644531 241.105469 C 52.222656 241.867188 53.792969 242.378906 55.046875 242.378906 C 56.394531 242.378906 57.644531 242.785156 57.898438 243.265625 C 58.1875 243.722656 59.054688 244.054688 59.730469 244.054688 C 60.464844 244.054688 62.199219 244.589844 63.671875 245.273438 C 67.007812 246.796875 72.429688 247.332031 72.945312 246.1875 C 73.230469 245.652344 73.554688 245.730469 73.90625 246.390625 C 74.164062 246.921875 75.125 247.382812 76.023438 247.382812 C 76.921875 247.382812 78.363281 247.785156 79.328125 248.269531 C 80.191406 248.726562 83.464844 249.335938 86.542969 249.511719 C 89.6875 249.792969 94.660156 250.453125 97.640625 251.0625 C 100.65625 251.722656 105.789062 252.253906 109.09375 252.253906 C 112.429688 252.253906 115.445312 252.457031 115.894531 252.738281 C 117.238281 253.601562 124.617188 254.335938 130.488281 254.335938 C 133.566406 254.261719 136.101562 254.542969 136.101562 254.871094 C 136.101562 255.199219 139.980469 255.53125 144.664062 255.605469 C 152.363281 255.660156 155.699219 255.859375 167.46875 257.054688 C 170.292969 257.335938 187.195312 256.472656 201.503906 255.328125 C 203.652344 255.199219 205.671875 255.402344 205.929688 255.8125 C 206.183594 256.265625 206.730469 256.394531 207.117188 256.191406 C 207.46875 255.9375 212.472656 255.402344 218.148438 254.921875 C 223.828125 254.464844 230.113281 253.855469 232.230469 253.601562 C 234.285156 253.324219 238.421875 252.941406 241.4375 252.789062 C 253.398438 252.050781 255.292969 251.722656 265.234375 248.800781 C 267.578125 248.117188 271.523438 246.71875 274.023438 245.730469 C 278.613281 243.925781 283.039062 242.53125 285.636719 241.996094 C 289.230469 241.261719 296.957031 237.855469 298.144531 236.460938 C 298.882812 235.597656 299.941406 234.914062 300.550781 234.914062 C 301.800781 234.914062 311.457031 230.0625 312.035156 229.121094 C 312.324219 228.714844 314.023438 228.109375 315.820312 227.855469 C 317.582031 227.523438 319.570312 226.710938 320.054688 226.050781 C 320.628906 225.4375 321.65625 224.90625 322.492188 224.90625 C 323.292969 224.90625 324.894531 224.042969 326.019531 223.050781 C 328.90625 220.4375 331.40625 219.039062 333.171875 219.039062 C 334.007812 219.039062 335.351562 218.382812 336.058594 217.570312 C 338.078125 215.511719 339.875 214.039062 340.675781 214.039062 C 341.03125 214.039062 342.953125 212.515625 344.976562 210.6875 C 346.964844 208.910156 348.921875 207.359375 349.304688 207.359375 C 349.660156 207.359375 353.1875 204.769531 357.132812 201.570312 C 361.078125 198.371094 364.703125 195.679688 365.085938 195.679688 C 365.566406 195.679688 366.210938 195.222656 366.5625 194.636719 C 366.949219 194.03125 370.25 190.957031 373.90625 187.753906 C 384.84375 178.363281 385.359375 177.878906 386.578125 175.464844 C 387.21875 174.195312 388.179688 173.207031 388.628906 173.207031 C 389.976562 173.207031 400.242188 163.738281 400.242188 162.539062 C 400.242188 162.132812 402.070312 159.671875 404.1875 157.132812 C 406.433594 154.59375 409.703125 150.40625 411.5625 147.789062 C 413.359375 145.195312 416.566406 140.929688 418.71875 138.316406 C 423.207031 132.78125 424.941406 129.859375 424.617188 128.390625 C 424.425781 127.320312 425.550781 126.992188 426.414062 127.855469 C 427.089844 128.515625 425.195312 132.578125 423.882812 133.390625 C 423.335938 133.796875 422.824219 134.53125 422.824219 134.988281 C 422.824219 135.523438 421.796875 137.25 420.511719 138.925781 C 419.261719 140.523438 417.851562 142.53125 417.402344 143.316406 C 415.703125 146.0625 411.5 152.457031 408.035156 157.335938 C 406.015625 160.078125 404.410156 162.746094 404.410156 163.203125 C 404.410156 163.683594 404.027344 164.015625 403.546875 164.015625 C 403.097656 164.015625 402.871094 164.394531 403.226562 164.875 C 403.480469 165.332031 403.226562 165.667969 402.550781 165.667969 C 401.84375 165.667969 400.882812 166.730469 400.339844 167.949219 C 399.054688 170.742188 395.238281 175.289062 386.480469 184.484375 C 382.824219 188.289062 378.398438 192.886719 376.730469 194.636719 C 372.367188 199.234375 366.820312 204.234375 363.613281 206.445312 C 362.070312 207.5625 359.058594 210.304688 356.941406 212.566406 C 352.898438 216.910156 345.839844 222.644531 341.800781 224.90625 C 340.550781 225.644531 338.464844 227.039062 337.214844 228.054688 C 335.867188 229.046875 334.390625 229.910156 333.878906 229.910156 C 333.332031 229.910156 332.113281 230.570312 331.246094 231.382812 C 330.382812 232.167969 327.910156 233.644531 325.828125 234.65625 C 323.773438 235.726562 320.214844 237.578125 317.9375 238.847656 C 312.257812 241.996094 305.492188 244.917969 304.015625 244.917969 C 303.375 244.917969 301.960938 245.527344 300.9375 246.1875 C 299.941406 246.921875 296.605469 248.394531 293.589844 249.460938 C 290.511719 250.53125 287.847656 251.722656 287.496094 252.207031 C 287.238281 252.585938 286.246094 253.195312 285.285156 253.449219 C 284.386719 253.730469 281.015625 254.921875 277.808594 256.191406 C 268.636719 259.671875 259.011719 262.386719 256.160156 262.386719 C 254.683594 262.386719 251.25 262.996094 248.523438 263.734375 C 245.796875 264.46875 242.589844 265.207031 241.4375 265.488281 C 240.28125 265.6875 237.8125 266.199219 236.015625 266.605469 C 234.15625 267.011719 228.734375 267.59375 223.828125 267.949219 C 219.015625 268.203125 214.941406 268.8125 214.8125 269.21875 C 214.460938 270.132812 213.015625 270.132812 213.015625 269.21875 C 213.015625 268.8125 202.914062 268.480469 190.660156 268.480469 C 178.375 268.40625 162.050781 267.949219 154.480469 267.339844 C 146.84375 266.804688 139.660156 266.269531 138.378906 266.269531 C 137.09375 266.199219 136.101562 265.941406 136.101562 265.6875 C 136.101562 265.410156 133.148438 264.875 129.621094 264.597656 C 126.0625 264.269531 118.972656 263.277344 113.96875 262.335938 C 91.613281 258.398438 94.660156 258.933594 86.992188 257.128906 C 84.203125 256.472656 81.539062 255.734375 81.121094 255.457031 C 80.707031 255.199219 79.453125 254.792969 78.363281 254.59375 C 75.316406 254.007812 63.128906 249.917969 62.132812 249.132812 C 61.683594 248.800781 59.246094 247.785156 56.777344 246.921875 C 54.308594 246.058594 51.484375 244.589844 50.425781 243.648438 C 47.765625 241.261719 45.199219 239.914062 43.464844 239.914062 C 42.695312 239.914062 41.253906 239.382812 40.355469 238.796875 Z M 35.703125 257.257812 C 35.511719 257.207031 34.324219 257.003906 33.042969 256.800781 C 31.757812 256.597656 30.765625 256.066406 30.765625 255.660156 C 30.765625 254.71875 34.066406 255.457031 35.320312 256.671875 C 35.800781 257.054688 35.929688 257.335938 35.703125 257.257812 Z M 16.8125 242.9375 C 12.867188 243.394531 12.191406 242.65625 11.167969 236.992188 C 10.84375 235.191406 9.980469 232.578125 9.242188 231.179688 C 7.957031 228.714844 5.746094 220.640625 5.714844 218.179688 C 5.714844 216.703125 7.765625 213.710938 15.113281 204.769531 C 17.742188 201.496094 20.148438 197.964844 20.402344 196.824219 C 20.949219 194.636719 23.289062 192.960938 24.542969 193.902344 C 24.957031 194.230469 25.441406 195.628906 25.472656 197.101562 C 25.632812 199.972656 28.292969 208.046875 30.894531 213.710938 C 32.914062 218.050781 32.847656 218.507812 30.285156 221.25 C 28.96875 222.722656 28.421875 224.042969 28.679688 225.058594 C 29.03125 225.898438 28.777344 227.167969 28.230469 227.902344 C 27.621094 228.589844 27.234375 230.265625 27.234375 231.585938 C 27.300781 232.933594 26.949219 234.25 26.5 234.53125 C 26.082031 234.785156 25.953125 235.394531 26.210938 235.777344 C 26.5 236.179688 26.082031 236.589844 25.34375 236.589844 C 24.542969 236.589844 24.09375 237.324219 24.09375 238.71875 C 24.09375 240.398438 23.738281 240.804688 22.746094 240.398438 C 21.75 240.066406 21.527344 240.242188 21.847656 241.105469 C 22.136719 241.867188 21.847656 242.453125 21.335938 242.453125 C 20.757812 242.53125 18.734375 242.734375 16.8125 242.9375 Z M 40.996094 197.558594 C 42.472656 198.015625 45.421875 198.699219 47.507812 199.03125 L 51.230469 199.640625 L 47.507812 199.691406 C 44.203125 199.765625 38.269531 198.015625 38.269531 197.023438 C 38.269531 196.824219 39.519531 197.023438 40.996094 197.558594 Z M 52.449219 193.625 C 47.21875 193.011719 45.292969 192.554688 43.59375 191.695312 C 41.125 190.347656 34.644531 188.621094 32.976562 188.902344 C 30.859375 189.152344 29.097656 187.554688 29.707031 185.878906 C 30.121094 184.886719 29.898438 184.761719 28.648438 185.21875 C 27.683594 185.625 26.015625 185.878906 24.734375 185.828125 C 21.207031 185.625 18.320312 187.097656 17.742188 189.433594 C 17.453125 190.550781 16.941406 191.566406 16.585938 191.566406 C 16.265625 191.566406 14.984375 193.695312 13.796875 196.417969 C 12.578125 199.109375 10.75 201.953125 9.851562 202.839844 C 8.824219 203.707031 7.507812 205.558594 6.898438 206.953125 C 6.226562 208.300781 4.558594 211.296875 3.148438 213.582031 C 1.351562 216.375 0.742188 218.304688 1 219.78125 C 1.253906 220.972656 1.671875 223.433594 1.960938 225.316406 C 2.152344 227.117188 2.730469 228.792969 3.242188 228.921875 C 4.558594 229.375 8.375 237.449219 7.832031 238.71875 C 7.636719 239.382812 7.765625 239.914062 8.246094 239.914062 C 9.242188 239.914062 13.507812 246.339844 13.636719 248.117188 C 14.117188 253.273438 16.585938 258.273438 18.640625 258.273438 C 18.929688 258.273438 20.886719 259.59375 22.875 261.269531 C 25.953125 263.8125 26.5 264.597656 26.015625 266.398438 C 25.632812 268.074219 25.761719 268.328125 26.691406 267.746094 C 29.097656 266.199219 31.855469 266.882812 33.171875 269.269531 C 33.90625 270.539062 34.933594 271.605469 35.382812 271.605469 C 35.929688 271.605469 37.117188 272.339844 38.140625 273.28125 C 39.070312 274.144531 40.128906 274.933594 40.386719 274.933594 C 41.414062 274.933594 45.808594 279.476562 45.808594 280.542969 C 45.808594 281.152344 47.828125 282.957031 50.363281 284.554688 C 52.832031 286.078125 55.558594 288.542969 56.394531 289.886719 C 57.257812 291.363281 58.796875 292.632812 60.210938 292.882812 C 61.460938 293.164062 62.550781 293.75 62.550781 294.230469 C 62.550781 295.296875 68.230469 300.554688 71.019531 302.101562 C 72.300781 302.6875 73.519531 304.03125 73.839844 304.972656 C 74.097656 305.835938 74.773438 306.625 75.382812 306.625 C 75.894531 306.625 77.851562 308.5 79.617188 310.761719 C 81.445312 313.171875 83.464844 314.976562 84.332031 314.976562 C 85.261719 314.976562 85.933594 315.558594 86.03125 316.449219 C 86.03125 317.234375 87.859375 319.292969 90.199219 321.046875 C 92.507812 322.769531 94.144531 324.449219 93.953125 324.855469 C 93.792969 325.160156 94.980469 326.375 96.648438 327.523438 C 98.25 328.640625 101.714844 331.710938 104.183594 334.300781 C 106.75 336.992188 109.285156 339.125 109.894531 339.125 C 110.566406 339.125 111.015625 339.507812 111.015625 339.988281 C 111.015625 340.445312 111.433594 340.777344 111.914062 340.777344 C 112.363281 340.777344 113.777344 341.714844 115.027344 342.855469 C 116.246094 344.050781 117.722656 344.992188 118.171875 344.992188 C 118.714844 344.992188 119.839844 345.777344 120.703125 346.71875 C 121.601562 347.734375 124.394531 349.511719 126.863281 350.78125 C 140.558594 357.660156 143.445312 359.007812 146.074219 359.515625 C 147.679688 359.945312 149.539062 360.457031 150.277344 360.859375 C 151.882812 361.671875 161.183594 362.996094 173.691406 364.265625 C 178.984375 364.796875 183.988281 365.457031 184.789062 365.738281 C 185.59375 365.988281 190.148438 365.863281 194.832031 365.332031 C 199.511719 364.796875 203.652344 364.519531 203.972656 364.671875 C 204.582031 365 221.035156 362.917969 224.691406 362.054688 C 225.847656 361.800781 230.53125 361.195312 235.148438 360.734375 C 239.734375 360.277344 244.644531 359.515625 246.023438 359.136719 C 247.402344 358.730469 251.347656 357.941406 254.8125 357.410156 C 258.210938 356.925781 261.449219 356.191406 261.898438 355.859375 C 263.183594 354.945312 273.253906 351.667969 274.921875 351.667969 C 275.660156 351.667969 277.808594 350.984375 279.574219 350.195312 C 281.339844 349.382812 283.167969 348.726562 283.648438 348.726562 C 284.097656 348.726562 285.988281 347.984375 287.785156 347.125 C 289.582031 346.261719 292.46875 345.527344 294.199219 345.527344 C 295.867188 345.449219 297.214844 345.066406 297.152344 344.585938 C 297.085938 344.179688 297.40625 343.796875 297.855469 343.722656 C 298.339844 343.722656 300.007812 342.855469 301.671875 341.84375 C 303.375 340.777344 305.296875 339.988281 306.035156 339.988281 C 306.773438 339.988281 307.574219 339.585938 307.894531 339.125 C 308.183594 338.644531 310.976562 336.992188 314.152344 335.394531 C 317.261719 333.792969 320.148438 332.117188 320.4375 331.632812 C 320.664062 331.179688 321.625 330.769531 322.425781 330.769531 C 323.292969 330.769531 324.960938 329.984375 326.179688 329.046875 C 327.460938 328.105469 331.246094 326.175781 334.742188 324.855469 C 338.207031 323.511719 342.667969 321.097656 344.621094 319.496094 C 346.578125 317.898438 348.441406 316.628906 348.792969 316.628906 C 349.113281 316.628906 350.652344 315.710938 352.128906 314.492188 C 353.636719 313.378906 355.113281 312.4375 355.398438 312.4375 C 355.65625 312.4375 356.714844 311.777344 357.675781 310.964844 C 358.609375 310.152344 360.148438 309.363281 361.140625 309.085938 C 362.070312 308.832031 363.003906 308.042969 363.097656 307.308594 C 363.226562 306.496094 364.957031 304.285156 366.949219 302.308594 C 368.96875 300.296875 371.503906 297.503906 372.625 296.03125 C 373.78125 294.5625 376.539062 292.148438 378.75 290.75 C 380.933594 289.277344 384.460938 286.027344 386.671875 283.414062 C 388.824219 280.824219 392.191406 277.214844 393.988281 275.289062 C 395.847656 273.410156 398.316406 270.082031 399.472656 267.796875 C 400.660156 265.535156 403 261.601562 404.730469 259.0625 C 406.496094 256.546875 409.160156 252.585938 410.699219 250.324219 C 412.300781 248.066406 413.96875 245.730469 414.449219 245.121094 C 414.933594 244.589844 415.316406 243.796875 415.316406 243.394531 C 415.316406 242.988281 415.992188 241.71875 416.855469 240.648438 C 417.722656 239.53125 419.328125 236.257812 420.386719 233.3125 C 421.539062 230.265625 423.015625 227.855469 423.816406 227.574219 C 424.617188 227.371094 425.003906 226.785156 424.8125 226.179688 C 424.617188 225.59375 425.164062 222.925781 426.03125 220.238281 C 428.242188 213.582031 430.167969 205.429688 430.839844 199.894531 C 431.164062 197.355469 431.773438 194.890625 432.15625 194.359375 C 432.574219 193.902344 432.832031 192.554688 432.832031 191.4375 C 432.703125 186.765625 433.824219 177.800781 434.5625 176.886719 C 435.171875 176.152344 435.171875 175.667969 434.53125 175.289062 C 433.3125 174.550781 433.761719 166.605469 435.109375 164.34375 C 435.71875 163.40625 435.972656 162.414062 435.71875 162.132812 C 435.429688 161.882812 435.523438 161.144531 435.910156 160.535156 C 436.261719 159.925781 436.648438 158.683594 436.710938 157.742188 C 436.839844 156.878906 437.128906 154.210938 437.386719 151.929688 C 438.058594 144.917969 438.988281 130.394531 438.859375 127.777344 C 438.796875 126.460938 439.117188 124.984375 439.503906 124.449219 C 439.917969 123.917969 440.238281 122.242188 440.238281 120.644531 C 440.238281 116.65625 440.464844 114.652344 440.945312 113.179688 C 441.683594 111.042969 441.683594 98.828125 440.976562 98.421875 C 440.59375 98.171875 440.65625 97.5625 441.074219 97.027344 C 441.523438 96.492188 441.585938 94.359375 441.265625 92.101562 C 440.785156 89.105469 440.945312 87.886719 441.8125 87.152344 C 442.804688 86.289062 442.804688 86.082031 441.683594 85.421875 C 440.335938 84.6875 439.855469 79.101562 441.074219 77.675781 C 442.261719 76.230469 444.023438 70.285156 443.863281 68.078125 C 443.800781 66.9375 444.667969 63.203125 445.886719 59.75 C 447.070312 56.347656 448.964844 50.863281 450.085938 47.664062 C 451.175781 44.464844 453.230469 40.605469 454.640625 39.054688 C 455.988281 37.53125 456.984375 36.058594 456.726562 35.652344 C 456.308594 34.992188 463.398438 25.847656 468.59375 20.3125 C 473.628906 15.035156 478.089844 11.429688 479.726562 11.429688 C 480.527344 11.429688 481.585938 10.84375 482.195312 10.183594 C 483.445312 8.582031 489.699219 9.117188 491.015625 10.972656 C 492.683594 13.253906 496.148438 12.519531 497.847656 9.445312 C 498.519531 8.253906 498.328125 7.515625 497.171875 6.375 C 495.28125 4.519531 492.296875 2.84375 490.214844 2.515625 C 489.285156 2.363281 488.128906 1.828125 487.550781 1.371094 C 485.785156 -0.101562 473.308594 2.4375 466.957031 5.5625 C 461.667969 8.179688 457.847656 10.359375 458.042969 10.714844 C 458.457031 11.429688 456.917969 14.777344 456.179688 14.777344 C 455.765625 14.777344 454.386719 15.921875 453.101562 17.320312 C 451.914062 18.789062 450.152344 20.519531 449.285156 21.304688 C 448.484375 22.042969 447.230469 23.792969 446.496094 25.191406 C 445.757812 26.589844 443.929688 28.71875 442.390625 29.988281 C 440.945312 31.257812 439.375 33.0625 439.117188 34 C 438.859375 34.863281 438.058594 35.601562 437.386719 35.601562 C 436.710938 35.601562 436.167969 36.1875 436.167969 36.84375 C 436.167969 37.988281 432.347656 43.597656 428.5 48.121094 C 427.890625 48.882812 426.480469 50.785156 425.324219 52.539062 C 424.203125 54.214844 422.949219 55.609375 422.597656 55.609375 C 422.277344 55.609375 421.988281 56.144531 421.988281 56.726562 C 421.988281 57.339844 421.347656 58.683594 420.511719 59.675781 C 419.742188 60.613281 418.394531 62.34375 417.59375 63.53125 C 416.730469 64.679688 415.574219 65.617188 414.964844 65.617188 C 414.449219 65.617188 413.105469 67.136719 412.046875 69.019531 C 410.988281 70.871094 409.574219 72.625 408.964844 72.878906 C 408.292969 73.078125 407.78125 73.820312 407.78125 74.425781 C 407.78125 75.011719 405.886719 77.425781 403.609375 79.8125 C 401.363281 82.148438 399.375 84.484375 399.375 84.890625 C 399.375 86.160156 384.621094 100.429688 382.730469 101.039062 C 381.796875 101.371094 380.996094 101.902344 380.996094 102.285156 C 380.996094 103.375 375.832031 108.429688 373.523438 109.648438 C 372.367188 110.230469 368.839844 113.179688 365.695312 116.097656 C 362.554688 119.042969 359.601562 121.507812 359.28125 121.507812 C 358.863281 121.507812 355.945312 123.183594 352.738281 125.238281 C 349.5 127.320312 346.484375 128.972656 345.96875 128.972656 C 345.488281 128.972656 345.105469 129.328125 345.105469 129.65625 C 345.105469 130.035156 343.886719 130.976562 342.34375 131.789062 C 340.902344 132.578125 338.144531 134.332031 336.347656 135.652344 C 334.453125 136.996094 332.113281 138.316406 330.992188 138.59375 C 329.195312 139.054688 328.328125 139.585938 325.472656 142.125 C 324.832031 142.734375 323.675781 143.191406 323.035156 143.191406 C 322.296875 143.191406 321.65625 143.472656 321.65625 143.851562 C 321.65625 144.257812 319.699219 145.402344 317.261719 146.464844 C 314.890625 147.535156 311.585938 148.980469 309.980469 149.71875 C 308.378906 150.40625 305.617188 151.875 303.949219 152.941406 C 302.21875 154.011719 300.167969 154.871094 299.269531 154.871094 C 298.464844 154.871094 297.40625 155.203125 296.957031 155.660156 C 295.804688 156.804688 273.414062 164.34375 267.320312 165.667969 C 264.851562 166.199219 261.964844 167.011719 261.097656 167.417969 C 260.167969 167.796875 257.539062 168.28125 255.195312 168.558594 C 252.949219 168.738281 248.78125 169.472656 246.023438 170.132812 C 243.230469 170.820312 238.742188 171.808594 236.015625 172.34375 C 233.191406 172.875 226.457031 174.273438 220.972656 175.414062 C 202.976562 179.277344 199.226562 180.011719 196.691406 180.214844 C 191.527344 180.671875 186.585938 181.738281 184.339844 182.960938 C 183.058594 183.566406 181.390625 184.023438 180.589844 183.949219 C 179.785156 183.820312 177.636719 184.148438 175.839844 184.632812 C 173.949219 185.167969 170.613281 185.828125 168.335938 186.078125 C 166.121094 186.410156 163.652344 187.019531 162.914062 187.425781 C 161.730469 188.089844 147.453125 190.5 144.472656 190.550781 C 143.765625 190.625 141.714844 191.03125 139.851562 191.488281 C 138.058594 192.023438 135.554688 192.632812 134.433594 192.835938 C 133.277344 193.011719 130.617188 193.574219 128.5625 194.03125 C 124.875 194.765625 113.648438 195.753906 104.28125 196.160156 C 101.683594 196.289062 98.859375 196.746094 97.898438 197.230469 C 96.132812 198.167969 86.800781 198.371094 85.550781 197.429688 C 85.066406 197.101562 82.179688 197.023438 79.101562 197.304688 C 76.117188 197.558594 72.300781 197.558594 70.761719 197.230469 C 69.222656 196.824219 66.816406 196.367188 65.46875 196.035156 C 64.058594 195.753906 61.460938 195.425781 59.601562 195.425781 C 57.773438 195.347656 56.039062 195.019531 55.785156 194.636719 C 55.527344 194.28125 53.953125 193.824219 52.449219 193.625 "/>
</g>
</svg>
